<svg xmlns="http://www.w3.org/2000/svg" width="24" height="24" viewBox="0 0 24 24" fill="none">
  <path d="M11.999 21.9995C6.47618 21.9995 1.99902 17.5224 1.99902 11.9995C1.99902 6.47666 6.47618 1.99951 11.999 1.99951C17.5219 1.99951 21.999 6.47666 21.999 11.9995C21.999 17.5224 17.5219 21.9995 11.999 21.9995ZM11.999 20.4995C16.6934 20.4995 20.499 16.6939 20.499 11.9995C20.499 7.30509 16.6934 3.49951 11.999 3.49951C7.3046 3.49951 3.49902 7.30509 3.49902 11.9995C3.49902 16.6939 7.3046 20.4995 11.999 20.4995ZM12.352 16.4464L12.2794 16.5305C12.0131 16.7968 11.5964 16.821 11.3028 16.6032L11.2187 16.5305L7.21787 12.5297C6.95157 12.2634 6.9274 11.8467 7.14533 11.5531L7.21797 11.469L11.2195 7.46896C11.5124 7.17612 11.9873 7.17622 12.2802 7.46916C12.5464 7.73548 12.5705 8.15215 12.3526 8.44572L12.28 8.52982L9.55802 11.2505L16.2497 11.2502C16.6294 11.2502 16.9432 11.5324 16.9929 11.8984L16.9997 12.0002C16.9997 12.3799 16.7176 12.6937 16.3515 12.7434L16.2497 12.7502L9.56002 12.7505L12.2794 15.4699C12.5456 15.7362 12.5698 16.1528 12.352 16.4464Z" fill="#335AA5"/>
</svg>