<svg xmlns="http://www.w3.org/2000/svg" width="24" height="24" viewBox="0 0 24 24" fill="none">
  <path d="M12.001 2.00049C17.5238 2.00049 22.001 6.47764 22.001 12.0005C22.001 17.5233 17.5238 22.0005 12.001 22.0005C6.47813 22.0005 2.00098 17.5233 2.00098 12.0005C2.00098 6.47764 6.47813 2.00049 12.001 2.00049ZM12.001 3.50049C7.30656 3.50049 3.50098 7.30607 3.50098 12.0005C3.50098 16.6949 7.30656 20.5005 12.001 20.5005C16.6954 20.5005 20.501 16.6949 20.501 12.0005C20.501 7.30607 16.6954 3.50049 12.001 3.50049ZM11.648 7.55357L11.7206 7.46945C11.9869 7.20319 12.4036 7.17898 12.6972 7.39684L12.7813 7.46945L16.7821 11.4703C17.0484 11.7366 17.0726 12.1533 16.8547 12.4469L16.782 12.531L12.7805 16.531C12.4876 16.8239 12.0127 16.8238 11.7198 16.5308C11.4536 16.2645 11.4295 15.8478 11.6474 15.5543L11.72 15.4702L14.442 12.7495L7.75027 12.7498C7.37058 12.7498 7.05678 12.4676 7.00712 12.1016L7.00027 11.9998C7.00027 11.6201 7.28243 11.3063 7.6485 11.2566L7.75027 11.2498L14.44 11.2495L11.7206 8.53011C11.4544 8.26385 11.4302 7.84718 11.648 7.55357Z" fill="#335AA5"/>
</svg>