<svg width="13" height="17" viewBox="0 0 13 17" fill="none" xmlns="http://www.w3.org/2000/svg">
<path d="M4.01644 6.74848H4.81719C5.02956 6.74848 5.23324 6.66694 5.38341 6.52181C5.53358 6.37667 5.61794 6.17982 5.61794 5.97456C5.61794 5.76931 5.53358 5.57246 5.38341 5.42732C5.23324 5.28218 5.02956 5.20064 4.81719 5.20064H4.01644C3.80407 5.20064 3.6004 5.28218 3.45023 5.42732C3.30006 5.57246 3.21569 5.76931 3.21569 5.97456C3.21569 6.17982 3.30006 6.37667 3.45023 6.52181C3.6004 6.66694 3.80407 6.74848 4.01644 6.74848ZM4.01644 8.29632C3.80407 8.29632 3.6004 8.37786 3.45023 8.523C3.30006 8.66813 3.21569 8.86498 3.21569 9.07024C3.21569 9.2755 3.30006 9.47235 3.45023 9.61748C3.6004 9.76262 3.80407 9.84416 4.01644 9.84416H8.82094C9.03331 9.84416 9.23698 9.76262 9.38715 9.61748C9.53732 9.47235 9.62169 9.2755 9.62169 9.07024C9.62169 8.86498 9.53732 8.66813 9.38715 8.523C9.23698 8.37786 9.03331 8.29632 8.82094 8.29632H4.01644ZM12.8247 5.92813C12.8163 5.85703 12.8002 5.78699 12.7766 5.71917V5.64952C12.7381 5.56994 12.6868 5.4968 12.6245 5.43282L7.82 0.789305C7.75381 0.729106 7.67812 0.679471 7.59579 0.64226C7.57189 0.638979 7.54763 0.638979 7.52372 0.64226C7.44238 0.597172 7.35254 0.56823 7.25948 0.557129H2.41494C1.77783 0.557129 1.16681 0.801742 0.716298 1.23716C0.265789 1.67257 0.0126953 2.26312 0.0126953 2.87889V13.7138C0.0126953 14.3295 0.265789 14.9201 0.716298 15.3555C1.16681 15.7909 1.77783 16.0355 2.41494 16.0355H10.4224C11.0596 16.0355 11.6706 15.7909 12.1211 15.3555C12.5716 14.9201 12.8247 14.3295 12.8247 13.7138V5.97456C12.8247 5.97456 12.8247 5.97456 12.8247 5.92813ZM8.02019 3.19619L10.0941 5.20064H8.82094C8.60857 5.20064 8.40489 5.11911 8.25472 4.97397C8.10455 4.82883 8.02019 4.63198 8.02019 4.42672V3.19619ZM11.2232 13.7138C11.2232 13.919 11.1388 14.1159 10.9887 14.261C10.8385 14.4061 10.6348 14.4877 10.4224 14.4877H2.41494C2.20257 14.4877 1.9989 14.4061 1.84873 14.261C1.69856 14.1159 1.61419 13.919 1.61419 13.7138V2.87889C1.61419 2.67363 1.69856 2.47678 1.84873 2.33164C1.9989 2.18651 2.20257 2.10497 2.41494 2.10497H6.41869V4.42672C6.41869 5.04249 6.67178 5.63304 7.12229 6.06846C7.5728 6.50387 8.18382 6.74848 8.82094 6.74848H11.2232V13.7138ZM8.82094 11.392H4.01644C3.80407 11.392 3.6004 11.4735 3.45023 11.6187C3.30006 11.7638 3.21569 11.9607 3.21569 12.1659C3.21569 12.3712 3.30006 12.568 3.45023 12.7132C3.6004 12.8583 3.80407 12.9398 4.01644 12.9398H8.82094C9.03331 12.9398 9.23698 12.8583 9.38715 12.7132C9.53732 12.568 9.62169 12.3712 9.62169 12.1659C9.62169 11.9607 9.53732 11.7638 9.38715 11.6187C9.23698 11.4735 9.03331 11.392 8.82094 11.392Z" fill="#8D98A9"/>
</svg>
