<svg width="120" height="101" viewBox="0 0 120 101" fill="none" xmlns="http://www.w3.org/2000/svg">
<path d="M120 74.8824C120 67.8606 117.897 61.0804 113.918 55.2747C111.056 51.0988 107.371 47.6311 103.101 45.0541C108.129 40.2925 111.275 33.5626 111.275 26.1074C111.275 11.7119 99.5627 0 85.1675 0C76.6315 0 68.6354 4.22161 63.7785 11.1516C62.5443 10.9719 61.2833 10.8749 59.9998 10.8749C58.7163 10.8749 57.4557 10.9722 56.2215 11.1516C51.3643 4.22161 43.3682 0 34.8325 0C20.437 0 8.72512 11.7119 8.72512 26.1074C8.72512 33.5626 11.871 40.2925 16.8993 45.0541C12.6284 47.6307 8.94323 51.0988 6.08178 55.2744C2.10308 61.0804 0 67.8606 0 74.8824V89.4039H25.1676V100.279H94.8327V89.4039H120V74.8824H120ZM85.1675 6.44357C96.0102 6.44357 104.831 15.2647 104.831 26.1077C104.831 36.9507 96.0102 45.7719 85.1675 45.7719C84.9732 45.7719 84.779 45.769 84.5844 45.7632C84.5992 45.7219 84.6114 45.6797 84.6259 45.6385C84.9616 44.6868 85.2416 43.7094 85.4661 42.711C85.4819 42.6401 85.5 42.5699 85.5151 42.4987C85.5734 42.2294 85.6246 41.9575 85.6746 41.6849C85.6981 41.556 85.7222 41.4275 85.7438 41.2983C85.7844 41.0551 85.8212 40.8109 85.855 40.5657C85.8785 40.3953 85.8998 40.2249 85.9201 40.0541C85.9455 39.8376 85.9703 39.6208 85.9906 39.4027C86.0112 39.1801 86.0267 38.9572 86.0415 38.7339C86.0531 38.558 86.0676 38.3827 86.0757 38.2059C86.0934 37.8267 86.1034 37.4469 86.1047 37.0667C86.1047 37.0387 86.1069 37.0113 86.1069 36.9829C86.1069 36.9678 86.1056 36.9527 86.1056 36.9375C86.105 36.5493 86.0937 36.1634 86.0763 35.7787C86.0712 35.6669 86.0644 35.5554 86.0579 35.444C86.0389 35.117 86.0141 34.7916 85.9835 34.4678C85.9764 34.3944 85.9706 34.3209 85.9632 34.2478C84.9897 24.8377 79.0448 16.7834 70.4688 13.0579C74.1644 8.90618 79.5097 6.44357 85.1675 6.44357ZM53.1961 18.5317C53.2589 18.5089 53.3224 18.4873 53.3852 18.4647C53.5808 18.3948 53.7779 18.3285 53.976 18.2643C54.1262 18.2163 54.2773 18.17 54.4293 18.1255C54.5398 18.093 54.6507 18.0617 54.7618 18.0308C54.9603 17.9763 55.1597 17.9232 55.361 17.8745C56.8494 17.5131 58.4016 17.3169 59.9992 17.3169C61.5981 17.3182 63.1509 17.5147 64.6396 17.8761C64.8397 17.9245 65.0378 17.9773 65.2353 18.0314C65.3481 18.0627 65.4608 18.0942 65.5726 18.1274C65.7227 18.1716 65.8722 18.2173 66.0207 18.2647C66.2214 18.3294 66.4209 18.3964 66.6187 18.4673C66.6796 18.4889 66.7404 18.5095 66.801 18.5317C73.3773 20.9637 78.308 26.8165 79.424 33.9192C79.4327 33.9759 79.4411 34.0329 79.4494 34.0899C79.4852 34.3306 79.5151 34.5732 79.5419 34.8164C79.5515 34.906 79.5619 34.9952 79.5706 35.0851C79.5918 35.3071 79.6076 35.5306 79.6218 35.7549C79.6276 35.8509 79.6356 35.9465 79.6401 36.0429C79.6537 36.3293 79.6611 36.6173 79.6621 36.9069C79.6621 36.932 79.6637 36.9565 79.6637 36.9817C79.6637 36.9933 79.663 37.0052 79.663 37.0168C79.6624 37.2971 79.654 37.5754 79.6418 37.8528C79.6379 37.9401 79.634 38.0274 79.6289 38.1144C79.6137 38.3824 79.5938 38.6492 79.568 38.914C79.558 39.0164 79.5445 39.1186 79.5329 39.2207C79.5132 39.3921 79.4913 39.5631 79.4675 39.7332C79.4488 39.8657 79.4301 39.9984 79.4088 40.1302C79.3763 40.3309 79.3402 40.5303 79.3016 40.729C79.2671 40.9059 79.2294 41.0821 79.1901 41.258C79.1666 41.364 79.1421 41.47 79.1166 41.5754C79.0538 41.8366 78.9849 42.0963 78.9114 42.355C78.8821 42.4578 78.8547 42.5612 78.8238 42.663C78.779 42.8112 78.7307 42.9581 78.6827 43.105C78.644 43.2226 78.6044 43.3395 78.5635 43.4562C78.5171 43.5886 78.4713 43.7213 78.4224 43.8527C78.3389 44.076 78.2513 44.2973 78.1601 44.5167C78.1195 44.6147 78.0764 44.7116 78.0342 44.8092C77.9546 44.9919 77.8728 45.1736 77.7877 45.3534C77.7777 45.3746 77.7677 45.3959 77.7578 45.4172C77.7271 45.4809 77.6969 45.5451 77.6656 45.6088C77.5703 45.8034 77.471 45.9958 77.3692 46.1865C77.3296 46.2606 77.2913 46.3356 77.2507 46.4094C77.2481 46.4142 77.2455 46.4188 77.2429 46.4233C77.1315 46.6262 77.0152 46.826 76.8969 47.0244C76.8499 47.103 76.8035 47.182 76.7555 47.2596C76.6266 47.4687 76.4942 47.6755 76.358 47.8791C76.2732 48.0057 76.1846 48.1298 76.097 48.2544C76.0226 48.3601 75.9485 48.4661 75.8721 48.5702C75.7732 48.7048 75.6724 48.8379 75.5699 48.9703C75.5004 49.0602 75.4301 49.1494 75.3593 49.2383C75.251 49.3736 75.1418 49.5083 75.0303 49.6407C74.9611 49.7229 74.8899 49.8034 74.8193 49.8843C74.7033 50.0173 74.5877 50.1507 74.4685 50.2805C74.3976 50.3575 74.3241 50.4316 74.252 50.5076C74.058 50.7122 73.8596 50.9123 73.6573 51.1085C73.5371 51.2248 73.4176 51.3414 73.2945 51.4545C73.2095 51.5328 73.1222 51.6088 73.0355 51.6858C72.8944 51.8111 72.7523 51.9351 72.6077 52.0563C72.5342 52.1178 72.4601 52.1787 72.3857 52.2393C72.2108 52.3817 72.0336 52.5212 71.8535 52.6578C71.8045 52.6948 71.7562 52.7325 71.7069 52.7692C68.4337 55.2025 64.3822 56.6448 59.9995 56.6448C55.6165 56.6448 51.5643 55.2022 48.2912 52.7683C48.2428 52.7322 48.1955 52.6951 48.1475 52.6587C47.9668 52.5218 47.7886 52.3813 47.613 52.2383C47.5392 52.1781 47.4655 52.1178 47.3927 52.0566C47.2474 51.9348 47.105 51.8101 46.9632 51.6845C46.8772 51.6078 46.7902 51.5324 46.7055 51.4545C46.5821 51.3411 46.4623 51.2241 46.3418 51.1078C46.1385 50.911 45.9397 50.7103 45.7451 50.5051C45.6739 50.43 45.6011 50.3569 45.5312 50.2808C45.4117 50.1507 45.296 50.017 45.1801 49.8839C45.1095 49.8031 45.0386 49.7229 44.9694 49.6407C44.8576 49.5083 44.7487 49.3736 44.6404 49.2386C44.5696 49.1497 44.499 49.0605 44.4294 48.9703C44.3273 48.8382 44.2265 48.7051 44.1275 48.5705C44.0512 48.4661 43.9768 48.3598 43.9024 48.2538C43.8147 48.1294 43.7265 48.0057 43.642 47.8794C43.5051 47.6749 43.3721 47.4674 43.2429 47.2577C43.1955 47.1807 43.1498 47.103 43.1034 47.0254C42.9832 46.824 42.8656 46.6217 42.7526 46.4159C42.711 46.3402 42.6717 46.2632 42.6308 46.1871C42.529 45.9958 42.4294 45.8028 42.3337 45.6079C42.2996 45.5386 42.2664 45.4687 42.2332 45.3991C42.2281 45.3885 42.2232 45.3779 42.2184 45.3672C42.1292 45.1791 42.0438 44.989 41.9604 44.7973C41.9207 44.7061 41.8805 44.6153 41.8424 44.5238C41.749 44.2996 41.6598 44.0734 41.5744 43.8453C41.5283 43.7223 41.4858 43.5979 41.4423 43.4739C41.3975 43.3466 41.3544 43.2184 41.3122 43.0899C41.2667 42.9507 41.221 42.8115 41.1785 42.6717C41.115 42.4626 41.0551 42.2522 40.9987 42.0406C40.9591 41.8921 40.9233 41.7422 40.8869 41.5928C40.8586 41.4752 40.8312 41.3576 40.8051 41.2394C40.7729 41.0944 40.7403 40.9497 40.7113 40.8041C40.6666 40.5773 40.6256 40.3492 40.5889 40.1198C40.5689 39.9961 40.5515 39.8721 40.5338 39.7484C40.5077 39.5651 40.4842 39.3808 40.4633 39.1959C40.453 39.1047 40.441 39.0135 40.4317 38.9224C40.405 38.6508 40.3847 38.3773 40.3692 38.1028C40.3647 38.0239 40.3611 37.9449 40.3576 37.866C40.3444 37.5725 40.335 37.278 40.335 36.9817C40.335 36.664 40.3441 36.3486 40.3592 36.0345C40.3634 35.9491 40.3705 35.8644 40.3753 35.7793C40.3895 35.5435 40.4066 35.3083 40.4291 35.0745C40.4369 34.9929 40.4462 34.9118 40.4549 34.8306C40.4826 34.5774 40.5139 34.3254 40.5512 34.0751C40.5583 34.0265 40.5654 33.9775 40.5731 33.9288C41.6856 26.8219 46.6172 20.9654 53.1961 18.5317ZM15.1684 26.1077C15.1684 15.265 23.9895 6.44357 34.8325 6.44357C40.4907 6.44357 45.8357 8.9065 49.5312 13.0572C40.9523 16.784 35.0062 24.8423 34.0355 34.2562C34.0287 34.32 34.0239 34.3841 34.0178 34.4482C33.9856 34.7835 33.9601 35.1202 33.9408 35.4588C33.935 35.5619 33.9285 35.6647 33.9237 35.7681C33.9053 36.1711 33.8928 36.5754 33.8928 36.9826C33.8928 37.3937 33.9047 37.8038 33.924 38.2136C33.9318 38.3786 33.9453 38.5419 33.9559 38.7059C33.9717 38.9417 33.9878 39.1775 34.0097 39.4127C34.029 39.6218 34.0529 39.8296 34.0774 40.0374C34.0986 40.2184 34.1212 40.3988 34.1463 40.5792C34.1792 40.816 34.2146 41.0519 34.2536 41.2867C34.2771 41.4262 34.3029 41.5654 34.3283 41.7046C34.3767 41.9674 34.4259 42.2297 34.482 42.4897C34.5007 42.5754 34.522 42.6604 34.5413 42.7458C34.76 43.7132 35.0316 44.6604 35.3551 45.584C35.3757 45.6436 35.3937 45.7039 35.4147 45.7632C35.2204 45.769 35.0258 45.7719 34.8319 45.7719C23.9895 45.7715 15.1684 36.9504 15.1684 26.1077ZM30.5693 67.1837C30.4985 67.2955 30.4308 67.4092 30.3612 67.5217C30.214 67.7594 30.0681 67.9978 29.9269 68.2385C29.848 68.3728 29.772 68.5081 29.6953 68.6434C29.5684 68.8667 29.4431 69.0906 29.3213 69.3164C29.2446 69.4585 29.1692 69.6012 29.0945 69.744C28.9772 69.9685 28.8628 70.1943 28.7507 70.4208C28.6802 70.5632 28.61 70.7053 28.5417 70.8483C28.4276 71.087 28.3177 71.3277 28.2092 71.5687C28.1502 71.6998 28.0897 71.83 28.0326 71.9617C27.907 72.2504 27.7871 72.5413 27.6696 72.8332C27.6351 72.9185 27.5984 73.003 27.5649 73.0883C27.4157 73.4675 27.273 73.8493 27.1377 74.233C27.1067 74.3209 27.079 74.4098 27.0484 74.4978C26.9466 74.7935 26.8474 75.0902 26.7537 75.3882C26.7108 75.5252 26.6712 75.6627 26.6299 75.8C26.5542 76.0525 26.4798 76.3054 26.4099 76.5599C26.3683 76.7114 26.3287 76.8631 26.2891 77.0152C26.2253 77.2594 26.1641 77.5042 26.1061 77.75C26.0691 77.9056 26.033 78.0612 25.9985 78.2171C25.9431 78.4662 25.8912 78.7162 25.8413 78.9665C25.8113 79.1169 25.7804 79.2674 25.7524 79.4185C25.7018 79.691 25.6564 79.9649 25.6122 80.239C25.5916 80.3679 25.5687 80.4961 25.5494 80.625C25.4895 81.0277 25.435 81.4314 25.3893 81.837C25.3886 81.8418 25.3883 81.8466 25.388 81.8515C25.3464 82.2203 25.3107 82.5899 25.2807 82.9607H6.44325V74.8824C6.44325 63.8458 12.7879 53.9377 22.7279 49.2283C26.349 51.1317 30.4653 52.2151 34.8322 52.2151C36.0951 52.2151 37.3618 52.1217 38.6189 51.9368C38.8148 52.2161 39.0139 52.4925 39.22 52.7637C39.2896 52.8549 39.3618 52.9438 39.4327 53.034C39.6363 53.2943 39.8428 53.5518 40.0561 53.804C40.1434 53.9074 40.2329 54.0086 40.3218 54.1107C40.5216 54.3401 40.7245 54.5666 40.932 54.7885C41.0409 54.9055 41.1517 55.0205 41.2626 55.1355C41.4523 55.3311 41.6446 55.5237 41.8402 55.7135C41.9136 55.7847 41.9829 55.86 42.057 55.9306C41.7771 56.0997 41.4997 56.2731 41.2249 56.4499C41.1801 56.4786 41.1363 56.5089 41.0918 56.5379C40.817 56.7164 40.5451 56.8987 40.2758 57.0846C40.1827 57.149 40.0899 57.2141 39.9971 57.2792C39.7571 57.4483 39.5197 57.6203 39.2842 57.7953C39.2097 57.8507 39.1344 57.9048 39.0606 57.9609C38.761 58.1874 38.4649 58.418 38.1727 58.6538C38.1089 58.7054 38.0464 58.7585 37.9826 58.8107C37.75 59.0011 37.5197 59.1948 37.2922 59.3913C37.204 59.4673 37.1163 59.544 37.0287 59.621C36.8009 59.8217 36.5761 60.0253 36.3534 60.2318C36.2955 60.2856 36.2362 60.3384 36.1785 60.3929C35.9053 60.65 35.6363 60.9119 35.3712 61.1783C35.3022 61.2476 35.2349 61.3181 35.1666 61.3877C34.9636 61.5949 34.7629 61.8043 34.5648 62.0166C34.4862 62.101 34.4076 62.1854 34.3296 62.2708C34.1067 62.5143 33.887 62.7611 33.6708 63.0114C33.637 63.0507 33.6019 63.0887 33.568 63.1284C33.3216 63.416 33.0806 63.7092 32.8428 64.0053C32.7765 64.0878 32.7117 64.1715 32.6463 64.255C32.4675 64.4821 32.2913 64.7115 32.118 64.9431C32.051 65.0327 31.9836 65.1216 31.9176 65.2118C31.6908 65.521 31.4669 65.8329 31.2494 66.1502C31.0159 66.4911 30.7897 66.8361 30.5693 67.1837ZM31.6109 93.8356V89.4042V85.7574C31.6109 85.3998 31.6177 85.0434 31.6309 84.6881C31.6351 84.5712 31.6444 84.4552 31.6502 84.3386C31.6618 84.1014 31.6727 83.864 31.6901 83.6279C31.7008 83.4845 31.7169 83.3424 31.7298 83.1994C31.7485 82.9913 31.7652 82.7828 31.7884 82.576C31.8055 82.4246 31.8277 82.2741 31.847 82.123C31.8722 81.9262 31.8957 81.729 31.9247 81.5332C31.9482 81.3772 31.9765 81.2226 32.0023 81.0673C32.0339 80.8785 32.0632 80.6891 32.0986 80.5013C32.1286 80.3424 32.1634 80.1852 32.1959 80.0271C32.2333 79.8447 32.2691 79.6617 32.31 79.4807C32.3461 79.3209 32.3873 79.1627 32.426 79.0035C32.4695 78.8264 32.511 78.6482 32.5577 78.472C32.6003 78.3119 32.6473 78.1534 32.6924 77.9945C32.7414 77.8215 32.789 77.6482 32.8412 77.4765C32.8899 77.3167 32.9434 77.1582 32.9946 76.9994C33.0493 76.8309 33.1025 76.6621 33.1602 76.4949C33.2149 76.3367 33.2739 76.1798 33.3312 76.0229C33.3918 75.8573 33.4511 75.6911 33.5145 75.5268C33.5751 75.3705 33.6395 75.2162 33.7024 75.0609C33.7684 74.8989 33.8335 74.7359 33.9024 74.5751C33.9691 74.4201 34.0394 74.2668 34.1086 74.1134C34.1798 73.9553 34.2504 73.7964 34.3245 73.6399C34.397 73.4868 34.473 73.3357 34.548 73.184C34.6247 73.0294 34.7004 72.8744 34.7797 72.7214C34.858 72.5706 34.9395 72.4218 35.0203 72.2726C35.1022 72.1215 35.183 71.9704 35.2674 71.8209C35.3512 71.6727 35.4382 71.5268 35.5242 71.3802C35.6112 71.2327 35.6975 71.0848 35.7874 70.9385C35.8766 70.7932 35.9688 70.6502 36.0606 70.5065C36.1527 70.3625 36.2442 70.2185 36.3389 70.0761C36.4337 69.9337 36.531 69.7932 36.6282 69.6528C36.7252 69.5126 36.8219 69.3725 36.9211 69.234C37.021 69.0948 37.1237 68.9576 37.2265 68.82C37.3283 68.6837 37.4298 68.5474 37.5338 68.4131C37.6389 68.2775 37.7465 68.1438 37.8541 68.0098C37.9607 67.877 38.0677 67.7446 38.1766 67.6138C38.2864 67.4824 38.3985 67.3525 38.5106 67.223C38.6224 67.0938 38.7345 66.9647 38.8489 66.8371C38.9633 66.7095 39.0802 66.5839 39.1968 66.4582C39.3135 66.3329 39.4301 66.2082 39.549 66.0852C39.6682 65.9615 39.7896 65.8397 39.9114 65.7182C40.0329 65.5968 40.155 65.4759 40.2787 65.3564C40.4021 65.2375 40.5274 65.1203 40.6533 65.0033C40.7796 64.8861 40.9066 64.7691 41.0351 64.6538C41.1633 64.5391 41.2928 64.426 41.4233 64.3136C41.5541 64.2005 41.6859 64.0881 41.8189 63.9773C41.9513 63.8671 42.085 63.7585 42.2197 63.6506C42.3553 63.5417 42.4919 63.4338 42.6298 63.3271C42.7661 63.2221 42.9036 63.1184 43.0419 63.0153C43.1823 62.9106 43.3237 62.8072 43.4668 62.705C43.6066 62.6048 43.7477 62.5063 43.8898 62.4083C44.0354 62.3081 44.1817 62.2092 44.3292 62.1116C44.4726 62.0169 44.6172 61.9231 44.7625 61.8307C44.913 61.735 45.0644 61.6406 45.2168 61.5478C45.3637 61.4583 45.5116 61.3697 45.6604 61.2827C45.815 61.1922 45.971 61.1029 46.1279 61.015C46.2783 60.9306 46.4297 60.8471 46.5821 60.7653C46.7416 60.6796 46.9023 60.5955 47.0641 60.5124C47.2174 60.4335 47.3714 60.3558 47.5267 60.2795C47.6488 60.2195 47.7722 60.1616 47.8956 60.1032C51.5163 62.0066 55.6333 63.0897 59.9998 63.0897C64.3668 63.0897 68.4833 62.0066 72.1041 60.1032C72.2265 60.1612 72.349 60.2189 72.4701 60.2782C72.6273 60.3555 72.7829 60.4341 72.9382 60.5137C73.098 60.5958 73.2571 60.679 73.415 60.7637C73.569 60.8465 73.722 60.9309 73.8741 61.0163C74.029 61.1032 74.183 61.1912 74.3357 61.2808C74.4868 61.369 74.6366 61.4589 74.7855 61.5498C74.9359 61.6416 75.0851 61.7344 75.2333 61.8287C75.3808 61.9225 75.5271 62.0172 75.6724 62.1135C75.8183 62.2099 75.963 62.3078 76.1067 62.4067C76.25 62.5056 76.3927 62.6052 76.5342 62.7063C76.6756 62.8075 76.8154 62.9099 76.9546 63.0137C77.0944 63.1174 77.2333 63.2221 77.3708 63.3284C77.5074 63.4341 77.6427 63.541 77.7774 63.649C77.9127 63.7575 78.0474 63.8667 78.1808 63.9776C78.3132 64.0878 78.444 64.1995 78.5741 64.312C78.7052 64.4251 78.8357 64.5388 78.9646 64.6544C79.0921 64.7688 79.2181 64.8848 79.3434 65.0011C79.4704 65.119 79.597 65.2375 79.7217 65.3577C79.8444 65.4759 79.9652 65.5958 80.0854 65.716C80.2078 65.8384 80.3302 65.9611 80.4504 66.0855C80.5683 66.2079 80.6846 66.3316 80.8003 66.456C80.9182 66.5826 81.0358 66.7095 81.1511 66.8381C81.2645 66.9643 81.3756 67.0922 81.4865 67.2205C81.5995 67.3509 81.7126 67.4817 81.8231 67.6145C81.9317 67.7443 82.0377 67.8761 82.1437 68.0078C82.2519 68.1425 82.3602 68.2768 82.4658 68.4134C82.5696 68.5471 82.6704 68.6828 82.7716 68.8184C82.8747 68.9563 82.9778 69.0945 83.0783 69.2343C83.1772 69.3719 83.2735 69.5117 83.3698 69.6512C83.4674 69.7923 83.5654 69.9334 83.6604 70.0764C83.7545 70.2179 83.8453 70.3609 83.9368 70.5039C84.0293 70.6486 84.1221 70.7929 84.212 70.9392C84.3009 71.0838 84.3866 71.2307 84.4729 71.377C84.5599 71.5245 84.6475 71.6718 84.7316 71.8209C84.8157 71.9698 84.8962 72.1205 84.9777 72.2707C85.0589 72.4205 85.1407 72.57 85.219 72.7211C85.2983 72.8738 85.3737 73.0287 85.4503 73.183C85.5254 73.3348 85.6018 73.4862 85.6742 73.6395C85.7483 73.7961 85.8186 73.9543 85.8895 74.1122C85.959 74.2665 86.0296 74.4198 86.0963 74.5754C86.1649 74.7349 86.229 74.8963 86.2947 75.0574C86.3585 75.214 86.4236 75.3699 86.4845 75.5277C86.5476 75.6911 86.6066 75.8563 86.6668 76.0213C86.7245 76.1788 86.7835 76.3357 86.8382 76.4945C86.8962 76.6624 86.9497 76.8322 87.0045 77.0013C87.0557 77.1595 87.1088 77.317 87.1572 77.4765C87.2097 77.6482 87.257 77.8219 87.3063 77.9949C87.3514 78.1537 87.3985 78.3119 87.441 78.472C87.4877 78.6482 87.5293 78.826 87.5728 79.0035C87.6117 79.1624 87.6526 79.3209 87.6887 79.4807C87.7296 79.6617 87.7651 79.8444 87.8028 80.0264C87.8353 80.1846 87.8701 80.3421 87.9001 80.5013C87.9352 80.6875 87.9642 80.8753 87.9957 81.0628C88.0218 81.2197 88.0508 81.3756 88.0744 81.5335C88.1034 81.7278 88.1265 81.9236 88.1517 82.1189C88.1713 82.2712 88.1939 82.4227 88.211 82.5757C88.2341 82.7825 88.2509 82.9909 88.2696 83.1991C88.2825 83.3421 88.2986 83.4842 88.3092 83.6275C88.3269 83.8637 88.3376 84.1014 88.3492 84.3389C88.355 84.4552 88.3643 84.5712 88.3685 84.6878C88.3817 85.0431 88.3885 85.3994 88.3885 85.757V89.4036V93.8356H31.6109ZM94.7206 82.9607C94.6574 82.1759 94.5666 81.3959 94.4512 80.6208C94.4329 80.4981 94.411 80.3763 94.3913 80.2539C94.3465 79.9732 94.2998 79.6933 94.248 79.4143C94.2206 79.2674 94.1906 79.1211 94.1613 78.9746C94.1107 78.7197 94.0579 78.4655 94.0015 78.2123C93.9673 78.0596 93.9319 77.9069 93.8958 77.7548C93.8369 77.5061 93.775 77.2584 93.7106 77.0113C93.6716 76.8615 93.6326 76.712 93.5914 76.5625C93.5208 76.3054 93.4454 76.0496 93.3688 75.7942C93.3282 75.6595 93.2895 75.5245 93.2473 75.3902C93.1523 75.0877 93.0518 74.7868 92.9484 74.4865C92.9194 74.4027 92.8929 74.318 92.8633 74.2343C92.7273 73.8493 92.5846 73.4665 92.4348 73.0861C92.4026 73.0046 92.3675 72.924 92.3346 72.8425C92.2158 72.5471 92.094 72.2523 91.9667 71.9598C91.9103 71.83 91.8507 71.7017 91.7928 71.5725C91.6832 71.329 91.5724 71.0864 91.4571 70.8454C91.3897 70.7043 91.3201 70.5642 91.2509 70.424C91.1378 70.1953 91.0221 69.9675 90.9039 69.7411C90.8298 69.5993 90.7554 69.4582 90.6794 69.3174C90.5569 69.0909 90.4313 68.8661 90.3037 68.6418C90.227 68.5072 90.1513 68.3725 90.073 68.2388C89.9313 67.9969 89.7847 67.7575 89.6365 67.5185C89.5676 67.407 89.5006 67.2946 89.4303 67.1841C89.2097 66.8364 88.9835 66.4914 88.7496 66.1502C88.5318 65.8326 88.3079 65.5207 88.0811 65.2115C88.0154 65.1219 87.9484 65.0333 87.882 64.9444C87.7077 64.7115 87.5309 64.4814 87.3514 64.2533C87.2867 64.1712 87.2226 64.0881 87.1568 64.0066C86.9188 63.7095 86.6768 63.4157 86.4297 63.1274C86.3975 63.09 86.3643 63.0536 86.3321 63.0162C86.1143 62.764 85.8927 62.5153 85.6681 62.2698C85.5908 62.1854 85.5132 62.1019 85.4352 62.0182C85.2361 61.8046 85.0341 61.5936 84.8299 61.3855C84.7625 61.3168 84.6965 61.2476 84.6285 61.1796C84.3627 60.9128 84.0928 60.65 83.8189 60.3922C83.7625 60.3391 83.7045 60.2875 83.6478 60.2347C83.4239 60.0269 83.1978 59.8223 82.969 59.6206C82.8821 59.544 82.7944 59.4679 82.7068 59.3919C82.4787 59.1951 82.2484 59.0015 82.0155 58.8107C81.952 58.7589 81.8898 58.7057 81.826 58.6542C81.5341 58.4183 81.2381 58.1877 80.9388 57.9615C80.864 57.9051 80.788 57.8504 80.7129 57.7946C80.4784 57.6207 80.2423 57.4493 80.0032 57.2811C79.9095 57.2151 79.8157 57.1493 79.7217 57.0843C79.4549 56.9003 79.1859 56.7199 78.914 56.5434C78.8663 56.5124 78.8196 56.4802 78.7719 56.4496C78.4974 56.2734 78.221 56.1004 77.9414 55.9316C78.0136 55.8629 78.0812 55.7898 78.1524 55.7202C78.3521 55.5269 78.5483 55.3304 78.7416 55.1307C78.8496 55.0192 78.9568 54.9074 79.0625 54.794C79.2735 54.5685 79.4791 54.3385 79.682 54.1055C79.7684 54.0066 79.855 53.9084 79.9398 53.8079C80.1559 53.5521 80.366 53.2908 80.5725 53.0263C80.6401 52.94 80.7094 52.8549 80.7758 52.7676C80.9829 52.4954 81.183 52.2177 81.3798 51.9374C82.6369 52.122 83.9036 52.2154 85.1665 52.2154C89.5334 52.2154 93.65 51.1323 97.2708 49.2287C107.211 53.938 113.555 63.8461 113.555 74.8828V82.9607H94.7206Z" fill="#24374B"/>
</svg>
