<svg width="80" height="80" viewBox="0 0 80 80" fill="none" xmlns="http://www.w3.org/2000/svg">
<path d="M37.1888 28.4224V37.1898H28.4214C26.8704 37.1898 25.6133 38.4469 25.6133 39.9979C25.6133 41.5489 26.8704 42.8061 28.4214 42.8061H37.1888V51.5734C37.1888 53.1245 38.4459 54.3816 39.997 54.3816C41.548 54.3816 42.7888 53.1245 42.7888 51.5734V42.8061H51.5561C53.1072 42.8061 54.3643 41.5489 54.3643 39.9979C54.3643 38.4469 53.1072 37.1898 51.5561 37.1898H42.7888V28.4224C42.7888 26.8714 41.5317 25.6143 39.997 25.6143C38.4623 25.6143 37.1888 26.8714 37.1888 28.4224Z" fill="#24374B"/>
<path d="M11.7061 11.7061C4.16326 19.2653 0 29.3061 0 40C0 50.6939 4.16327 60.7347 11.7224 68.2939C19.2653 75.8367 29.3224 80 40 80C50.6776 80 60.7347 75.8367 68.2939 68.2776C75.8367 60.7347 80 50.6776 80 40C80 29.3224 75.8367 19.2653 68.2776 11.7061C60.7347 4.16326 50.6939 0 40 0C29.3224 0 19.2653 4.16326 11.7061 11.7061ZM74.4 40C74.4 49.1918 70.8245 57.8286 64.3265 64.3265C57.8286 70.8245 49.1918 74.4 40 74.4C30.8082 74.4 22.1714 70.8245 15.6735 64.3265C9.17551 57.8286 5.6 49.1918 5.6 40C5.6 30.8082 9.17551 22.1714 15.6735 15.6735C22.1714 9.17551 30.8082 5.6 40 5.6C49.1918 5.6 57.8286 9.17551 64.3265 15.6735C70.8245 22.1714 74.4 30.8082 74.4 40Z" fill="#24374B"/>
</svg>
